<svg xmlns="http://www.w3.org/2000/svg" width="1200" height="680" viewBox="0 0 1200 680" role="img" aria-labelledby="title desc">
<title id="title">Swing: clic, validació i resposta</title><desc id="desc">Swing: clic, validació i resposta</desc>
<rect width="1200" height="680" rx="24" fill="#f8fafc"/>
<rect x="40" y="32" width="1120" height="72" rx="16" fill="#0f172a"/>
<text x="600" y="78" text-anchor="middle" font-family="Arial, sans-serif" font-size="30" font-weight="700" fill="#ffffff">Swing: clic, validació i resposta</text>
<defs><marker id="arrow" markerWidth="12" markerHeight="12" refX="10" refY="6" orient="auto"><path d="M0,0 L12,6 L0,12 z" fill="#334155"/></marker></defs><rect x="80" y="245" width="180" height="100" rx="16" fill="#dbeafe" stroke="#2563eb" stroke-width="3"/><text x="170" y="285" text-anchor="middle" font-family="Arial" font-size="23" font-weight="700" fill="#1e3a8a">CLIC</text><text x="170" y="318" text-anchor="middle" font-family="Arial" font-size="18" fill="#1e3a8a">JButton</text><line x1="260" y1="295" x2="360" y2="295" stroke="#334155" stroke-width="4" marker-end="url(#arrow)"/><rect x="375" y="245" width="190" height="100" rx="16" fill="#ede9fe" stroke="#7c3aed" stroke-width="3"/><text x="470" y="284" text-anchor="middle" font-family="Arial" font-size="22" font-weight="700" fill="#4c1d95">LLEGIR</text><text x="470" y="318" text-anchor="middle" font-family="Arial" font-size="17" fill="#4c1d95">getText / combo</text><line x1="565" y1="295" x2="665" y2="295" stroke="#334155" stroke-width="4" marker-end="url(#arrow)"/><polygon points="780,220 900,295 780,370 660,295" fill="#fef3c7" stroke="#d97706" stroke-width="3"/><text x="780" y="290" text-anchor="middle" font-family="Arial" font-size="22" font-weight="700" fill="#92400e">VÀLID?</text><text x="780" y="320" text-anchor="middle" font-family="Arial" font-size="16" fill="#92400e">format + regles</text><line x1="900" y1="275" x2="1020" y2="210" stroke="#16a34a" stroke-width="4" marker-end="url(#arrow)"/><text x="948" y="225" font-family="Arial" font-size="18" fill="#15803d">sí</text><rect x="1025" y="155" width="140" height="100" rx="16" fill="#dcfce7" stroke="#16a34a" stroke-width="3"/><text x="1095" y="195" text-anchor="middle" font-family="Arial" font-size="20" font-weight="700" fill="#14532d">CONTINUAR</text><text x="1095" y="227" text-anchor="middle" font-family="Arial" font-size="16" fill="#14532d">calcular</text><line x1="780" y1="370" x2="780" y2="465" stroke="#dc2626" stroke-width="4" marker-end="url(#arrow)"/><text x="805" y="420" font-family="Arial" font-size="18" fill="#b91c1c">no</text><rect x="640" y="480" width="280" height="105" rx="16" fill="#fee2e2" stroke="#dc2626" stroke-width="3"/><text x="780" y="520" text-anchor="middle" font-family="Arial" font-size="22" font-weight="700" fill="#7f1d1d">ERROR + FOCUS</text><text x="780" y="553" text-anchor="middle" font-family="Arial" font-size="17" fill="#7f1d1d">missatge • selectAll • return</text></svg>