<svg xmlns="http://www.w3.org/2000/svg" viewBox="0 0 1600 900" role="img"><rect width="1600" height="900" fill="#fff"/><style>text{font-family:Arial,sans-serif;fill:#17324f}.title{font-size:56px;font-weight:700}.h{font-size:34px;font-weight:700}.t{font-size:24px}</style><text x="800" y="80" text-anchor="middle" class="title">Temps real i temps acumulat</text><text x="100" y="180" class="h">Quatre tasques seqüencials</text><rect x="100" y="230" width="280" height="90" rx="14" fill="#ffd7d7"/><rect x="380" y="230" width="280" height="90" rx="14" fill="#cde8ff"/><rect x="660" y="230" width="280" height="90" rx="14" fill="#d8f5cc"/><rect x="940" y="230" width="280" height="90" rx="14" fill="#fff3cc"/><text x="240" y="285" text-anchor="middle" class="t">2 s</text><text x="520" y="285" text-anchor="middle" class="t">2 s</text><text x="800" y="285" text-anchor="middle" class="t">2 s</text><text x="1080" y="285" text-anchor="middle" class="t">2 s</text><text x="1300" y="285" class="h">temps real: 8 s</text><text x="100" y="470" class="h">Quatre fils treballant alhora</text><rect x="210" y="520" width="320" height="60" rx="12" fill="#ffd7d7"/><rect x="210" y="600" width="320" height="60" rx="12" fill="#cde8ff"/><rect x="210" y="680" width="320" height="60" rx="12" fill="#d8f5cc"/><rect x="210" y="760" width="320" height="60" rx="12" fill="#fff3cc"/><text x="370" y="560" text-anchor="middle" class="t">2 s</text><text x="370" y="640" text-anchor="middle" class="t">2 s</text><text x="370" y="720" text-anchor="middle" class="t">2 s</text><text x="370" y="800" text-anchor="middle" class="t">2 s</text><text x="900" y="620" class="h">temps real: aproximadament 2 s</text><text x="900" y="700" class="h">temps acumulat: 8 s</text></svg>