<svg xmlns="http://www.w3.org/2000/svg" viewBox="0 0 1600 900" role="img"><rect width="1600" height="900" fill="#fff"/><style>text{font-family:Arial,sans-serif;fill:#10233f}.title{font-size:62px;font-weight:700}.h{font-size:38px;font-weight:700}.t{font-size:28px}.small{font-size:23px}.box{stroke:#17324f;stroke-width:4;rx:24}</style><text x="800" y="85" text-anchor="middle" class="title">Concurrència, paral·lelisme i distribució</text>
<line x1="530" y1="140" x2="530" y2="810" stroke="#d0d7de" stroke-width="3"/><line x1="1070" y1="140" x2="1070" y2="810" stroke="#d0d7de" stroke-width="3"/>
<text x="270" y="205" class="h" text-anchor="middle">Concurrència</text><rect x="110" y="290" width="320" height="130" class="box" fill="#eef2f6"/><text x="270" y="370" class="h" text-anchor="middle">1 CPU</text><rect x="90" y="520" width="120" height="80" fill="#cde8ff"/><rect x="210" y="520" width="120" height="80" fill="#d8f5cc"/><rect x="330" y="520" width="120" height="80" fill="#cde8ff"/><text x="270" y="675" class="t" text-anchor="middle">A i B s'alternen</text>
<text x="800" y="205" class="h" text-anchor="middle">Paral·lelisme</text><rect x="610" y="290" width="160" height="130" class="box" fill="#eef2f6"/><rect x="830" y="290" width="160" height="130" class="box" fill="#eef2f6"/><text x="690" y="370" class="t" text-anchor="middle">Nucli 1</text><text x="910" y="370" class="t" text-anchor="middle">Nucli 2</text><rect x="610" y="520" width="160" height="100" class="box" fill="#cde8ff"/><rect x="830" y="520" width="160" height="100" class="box" fill="#d8f5cc"/><text x="800" y="675" class="t" text-anchor="middle">A i B al mateix temps</text>
<text x="1330" y="205" class="h" text-anchor="middle">Distribució</text><rect x="1150" y="300" width="220" height="140" class="box" fill="#cde8ff"/><rect x="1380" y="520" width="170" height="140" class="box" fill="#d8f5cc"/><path d="M1340 430L1420 520" stroke="#17324f" stroke-width="7"/><text x="1350" y="740" class="t" text-anchor="middle">màquines connectades</text></svg>