<svg xmlns="http://www.w3.org/2000/svg" viewBox="0 0 1200 735" role="img">
<style>
  .bg{fill:#fff}.panel{fill:#f7fbff;stroke:#c7ddf4;stroke-width:2}.head{fill:#e9f4ff;stroke:#1870bd;stroke-width:3}
  .box{fill:#fff;stroke:#174f86;stroke-width:2}.soft{fill:#eef6fd;stroke:#a8cbea;stroke-width:1.5}
  .line{stroke:#355b7d;stroke-width:3;fill:none}.dash{stroke:#355b7d;stroke-width:2.5;fill:none;stroke-dasharray:8 7}
  .blue{fill:#1769aa}.dark{fill:#102b4e}.muted{fill:#4e667c}.green{stroke:#2e8b57}.red{stroke:#c23b45}
  text{font-family:Arial,Helvetica,sans-serif;fill:#102b4e}.title{font-size:34px;font-weight:700}.sub{font-size:18px;fill:#405b73}
  .h{font-size:23px;font-weight:700}.m{font-size:18px}.s{font-size:15px}.b{font-weight:700}
</style><rect class="bg" width="1200" height="735"/><defs><marker id="a" markerWidth="10" markerHeight="10" refX="8" refY="3" orient="auto"><path d="M0,0 L9,3 L0,6 Z" fill="#355b7d"/></marker><marker id="ag" markerWidth="10" markerHeight="10" refX="8" refY="3" orient="auto"><path d="M0,0 L9,3 L0,6 Z" fill="#2e8b57"/></marker><marker id="ar" markerWidth="10" markerHeight="10" refX="8" refY="3" orient="auto"><path d="M0,0 L9,3 L0,6 Z" fill="#c23b45"/></marker></defs>
<rect class="head" x="245" y="20" rx="18" width="710" height="90"/><text class="title" x="600" y="62" text-anchor="middle">Diagrama d'activitats</text><text class="sub" x="600" y="91" text-anchor="middle">Flux, decisions, paral·lelisme i repeticions</text>
<circle class="blue" cx="500" cy="145" r="16"/><path class="line" marker-end="url(#a)" d="M500 162 V205"/><rect class="soft" x="390" y="205" rx="12" width="220" height="55"/><text class="m b" x="500" y="240" text-anchor="middle">Iniciar còpia</text>
<rect x="325" y="300" width="350" height="12" rx="4" fill="#174f86"/><text class="s b" x="700" y="310">Fork</text><path class="line" d="M500 260 V300"/>
<path class="line" marker-end="url(#a)" d="M405 312 V350"/><path class="line" marker-end="url(#a)" d="M595 312 V350"/>
<rect class="soft" x="300" y="350" rx="12" width="210" height="60"/><text class="m b" x="405" y="386" text-anchor="middle">Copiar base de dades</text><rect class="soft" x="540" y="350" rx="12" width="210" height="60"/><text class="m b" x="645" y="386" text-anchor="middle">Copiar fitxers</text>
<path class="line" d="M405 410 V450"/><path class="line" d="M645 410 V450"/><rect x="325" y="450" width="350" height="12" rx="4" fill="#174f86"/><text class="s b" x="700" y="460">Join</text>
<path class="line" marker-end="url(#a)" d="M500 462 V500"/><rect class="soft" x="390" y="500" rx="12" width="220" height="55"/><text class="m b" x="500" y="535" text-anchor="middle">Verificar integritat</text>
<path class="line" d="M500 555 V585"/><path d="M500 585 l35 30 -35 30 -35 -30 z" fill="#eef6fd" stroke="#174f86" stroke-width="3"/><text class="s" x="545" y="620">Còpia correcta?</text>
<path class="line green" marker-end="url(#ag)" d="M500 645 V680 H735"/><text class="s" x="520" y="672" fill="#2e8b57">[correcta]</text>
<rect class="soft" x="735" y="650" rx="12" width="190" height="55"/><text class="m b" x="830" y="685" text-anchor="middle">Generar informe</text>
<path class="line red" marker-end="url(#ar)" d="M465 615 H180 V232 H390"/><text class="s" x="205" y="600" fill="#c23b45">[falla]</text>
</svg>